<svg xmlns="http://www.w3.org/2000/svg" viewBox="0 0 200 200">
  <defs>
    <linearGradient id="glow" x1="0%" y1="0%" x2="100%" y2="100%">
      <stop offset="0%" style="stop-color:#FF4444;stop-opacity:1"/>
      <stop offset="100%" style="stop-color:#CC0000;stop-opacity:1"/>
    </linearGradient>
  </defs>
  <!-- Background circle -->
  <circle cx="100" cy="100" r="96" fill="#151515"/>
  <circle cx="100" cy="100" r="90" fill="none" stroke="#EE0000" stroke-width="2" opacity="0.3"/>
  <!-- Gateway arch -->
  <path d="M50 150 L70 60 Q100 30 130 60 L150 150" fill="none" stroke="url(#glow)" stroke-width="6" stroke-linecap="round" stroke-linejoin="round"/>
  <!-- Forge spark lines -->
  <line x1="100" y1="80" x2="100" y2="55" stroke="#FF6644" stroke-width="3" stroke-linecap="round"/>
  <line x1="85" y1="70" x2="75" y2="50" stroke="#FF6644" stroke-width="2" stroke-linecap="round"/>
  <line x1="115" y1="70" x2="125" y2="50" stroke="#FF6644" stroke-width="2" stroke-linecap="round"/>
  <!-- Spark dots -->
  <circle cx="100" cy="52" r="3" fill="#FFAA44"/>
  <circle cx="73" cy="47" r="2.5" fill="#FFAA44"/>
  <circle cx="127" cy="47" r="2.5" fill="#FFAA44"/>
  <!-- Central node -->
  <circle cx="100" cy="105" r="12" fill="#EE0000"/>
  <circle cx="100" cy="105" r="7" fill="#151515"/>
  <circle cx="100" cy="105" r="4" fill="#FFFFFF"/>
  <!-- Connection lines from center -->
  <line x1="88" y1="105" x2="60" y2="130" stroke="#EE0000" stroke-width="2" opacity="0.6"/>
  <line x1="112" y1="105" x2="140" y2="130" stroke="#EE0000" stroke-width="2" opacity="0.6"/>
  <circle cx="60" cy="130" r="5" fill="#EE0000" opacity="0.7"/>
  <circle cx="140" cy="130" r="5" fill="#EE0000" opacity="0.7"/>
  <!-- Text -->
  <text x="100" y="180" text-anchor="middle" fill="#FFFFFF" font-family="Red Hat Display, sans-serif" font-size="18" font-weight="700" letter-spacing="2">GATEFORGE</text>
</svg>
